<?xml version="1.0" encoding="utf-8"?>
<!-- Generator: Adobe Illustrator 26.0.3, SVG Export Plug-In . SVG Version: 6.00 Build 0)  -->
<!DOCTYPE svg PUBLIC "-//W3C//DTD SVG 1.1//EN" "http://www.w3.org/Graphics/SVG/1.1/DTD/svg11.dtd">
<svg version="1.1" id="Layer_1" xmlns="http://www.w3.org/2000/svg" xmlns:xlink="http://www.w3.org/1999/xlink" x="0px" y="0px"
	 width="500.0px" height="500.0px" viewBox="0 0 500 500" enable-background="new 0 0 500 500"
	 xml:space="preserve">
<g transform="translate(250 250)">
	<polygon fill="#62A354" points="-50,-50 50,-50 -50,50 	"/>
	<polygon fill="#62A354" points="-50,50 50,-50 50,50 	"/>
	<g transform="translate(0 -100)">
		<g transform="rotate(45)">
			<g transform="scale(.5 .5)">
				<polygon fill="#62A354" points="-50,-50 50,-50 -50,50 				"/>
				<polygon fill="#62A354" points="-50,50 50,-50 50,50 				"/>
			</g>
		</g>
	</g>
	<g transform="translate(-40 90)">
		<g transform="scale(.2 .6)">
			<polygon fill="#62A354" points="-36.7,-51.3 62.9,-48.4 -62.9,48.4 			"/>
			<polygon fill="#62A354" points="-62.9,48.4 62.9,-48.4 36.7,51.3 			"/>
		</g>
		<g transform="translate(0 70)">
			<g transform="scale(.2 .6)">
				<polygon fill="#62A354" points="-95,-58.3 -95,-25 -395,-58.3 				"/>
				<polygon fill="#62A354" points="-395,-58.3 -95,-25 -395,-25 				"/>
			</g>
		</g>
	</g>
	<g transform="translate(40 90)">
		<g transform="scale(.2 .6)">
			<polygon fill="#62A354" points="-132.4,-42 -35.8,-50.6 -54.8,54.6 			"/>
			<polygon fill="#62A354" points="-54.8,54.6 -35.8,-50.6 41.8,46 			"/>
		</g>
		<g transform="translate(0 70)">
			<g transform="scale(.2 .6)">
				<polygon fill="#62A354" points="-41.8,-46 54.8,-54.6 35.8,50.6 				"/>
				<polygon fill="#62A354" points="35.8,50.6 54.8,-54.6 132.4,42 				"/>
			</g>
		</g>
	</g>
	<g transform="translate(-90 -40)">
		<g transform="scale(.6 .2)">
			<polygon fill="#62A354" points="-50,-50 50,-50 -50,50 			"/>
			<polygon fill="#62A354" points="-50,50 50,-50 50,50 			"/>
		</g>
		<g transform="translate(-70 0)">
			<g transform="scale(.6 .2)">
				<polygon fill="#62A354" points="-47.1,205.7 23.6,-6.4 -23.6,276.4 				"/>
				<polygon fill="#62A354" points="-23.6,276.4 23.6,-6.4 47.1,64.3 				"/>
			</g>
		</g>
	</g>
	<g transform="translate(90 -40)">
		<g transform="scale(.6 .2)">
			<polygon fill="#62A354" points="-23.6,-31.4 47.1,180.7 -47.1,39.3 			"/>
			<polygon fill="#62A354" points="-47.1,39.3 47.1,180.7 23.6,251.4 			"/>
		</g>
		<g transform="translate(70 0)">
			<g transform="scale(.6 .2)">
				<polygon fill="#62A354" points="-50,195 50,195 -50,295 				"/>
				<polygon fill="#62A354" points="-50,295 50,195 50,295 				"/>
			</g>
		</g>
	</g>
</g>
</svg>
